<?xml version="1.0" standalone="no"?>
<!DOCTYPE svg PUBLIC "-//W3C//DTD SVG 20010904//EN"
 "http://www.w3.org/TR/2001/REC-SVG-20010904/DTD/svg10.dtd">
<svg version="1.0" xmlns="http://www.w3.org/2000/svg"
 width="1024.000000pt" height="1024.000000pt" viewBox="0 0 1024.000000 1024.000000"
 preserveAspectRatio="xMidYMid meet">

<g transform="translate(0.000000,1024.000000) scale(0.100000,-0.100000)"
fill="#000000" stroke="none">
<path d="M3118 8694 c-62 -15 -120 -41 -155 -71 -12 -10 -30 -25 -40 -34 -146
-126 -342 -478 -438 -789 -9 -30 -23 -73 -31 -95 -21 -63 -59 -240 -69 -320
-10 -77 -19 -255 -18 -330 2 -80 0 -93 -20 -115 -74 -83 -225 -383 -257 -510
-6 -25 -15 -54 -20 -65 -4 -11 -16 -51 -25 -90 -9 -38 -20 -86 -25 -105 -11
-43 -40 -210 -47 -265 -2 -22 -6 -53 -8 -70 -16 -126 -20 -198 -19 -395 1
-243 10 -308 71 -498 l27 -83 -40 -31 c-94 -75 -277 -282 -325 -368 -8 -13
-26 -42 -41 -64 -16 -21 -28 -45 -28 -52 0 -7 -3 -14 -8 -16 -4 -1 -22 -34
-40 -73 -55 -114 -86 -188 -102 -240 -6 -22 -18 -54 -26 -72 -8 -17 -14 -38
-14 -46 0 -9 -4 -18 -9 -22 -6 -3 -10 -13 -10 -23 1 -9 -13 -66 -30 -127 -27
-97 -53 -232 -53 -275 0 -8 -4 -31 -8 -50 -21 -89 -34 -488 -19 -630 11 -111
19 -181 25 -213 3 -16 7 -38 9 -50 12 -93 88 -330 142 -443 215 -446 533 -721
1018 -878 28 -9 60 -16 72 -16 13 0 40 -6 60 -14 46 -17 257 -61 368 -77 266
-38 412 -47 680 -43 149 2 286 5 305 7 19 2 71 7 115 12 44 4 94 13 111 20 25
10 35 10 56 -1 28 -15 99 -36 208 -62 102 -25 509 -21 552 4 4 3 24 7 44 10
20 2 62 15 93 27 41 17 65 21 86 15 58 -15 199 -19 655 -19 457 1 651 5 760
18 79 9 85 8 190 -25 116 -36 143 -41 295 -49 215 -11 441 29 580 102 74 39
76 40 169 50 32 3 109 18 170 32 61 14 122 27 136 30 14 3 30 9 35 13 6 4 28
13 50 20 21 7 91 40 155 73 345 180 615 483 762 857 6 14 16 39 23 55 24 57
75 261 81 330 2 22 8 60 13 85 21 93 23 120 26 305 3 190 -7 352 -30 490 -3
17 -7 44 -10 60 -2 17 -9 50 -15 75 -5 25 -17 81 -26 125 -16 77 -99 344 -130
415 -9 19 -19 44 -24 55 -22 54 -106 220 -112 223 -5 2 -8 8 -8 12 0 8 -78
139 -90 150 -3 3 -26 30 -52 61 l-47 56 40 75 c63 121 108 274 130 443 19 145
16 482 -6 605 -3 14 -7 41 -10 60 -20 138 -30 189 -56 295 -81 330 -203 598
-370 812 l-48 61 4 109 c7 218 -31 533 -85 708 -26 84 -62 188 -88 260 -41
111 -127 285 -144 293 -5 2 -8 10 -8 18 0 8 -4 14 -9 14 -5 0 -12 8 -16 19 -3
10 -14 29 -25 42 -72 90 -97 118 -107 118 -7 1 -13 5 -13 10 0 17 -109 71
-180 89 -8 2 -51 5 -95 7 -92 3 -255 -33 -378 -85 -39 -16 -75 -30 -78 -30
-20 0 -297 -143 -375 -194 -129 -84 -200 -132 -202 -138 -2 -5 -9 -8 -15 -8
-13 0 -140 -101 -202 -160 l-40 -39 -90 25 c-126 34 -351 69 -590 91 -108 11
-669 10 -775 -1 -47 -5 -101 -9 -120 -11 -19 -1 -48 -5 -65 -8 -16 -3 -57 -9
-90 -12 -33 -3 -85 -13 -116 -21 -80 -20 -89 -18 -138 26 -25 22 -47 40 -50
40 -3 0 -26 19 -51 43 -79 73 -197 157 -349 246 -84 49 -224 121 -236 121 -2
0 -29 11 -58 25 -111 50 -323 96 -442 94 -38 0 -96 -7 -127 -15z m297 -169
c166 -35 424 -160 658 -321 126 -87 363 -291 441 -379 60 -68 95 -90 127 -80
58 19 66 88 18 153 -17 23 -28 46 -25 51 3 5 34 12 68 16 35 4 70 9 78 10 139
26 698 39 925 23 111 -9 344 -40 475 -64 47 -9 96 -18 110 -21 70 -12 372 -97
500 -141 255 -87 523 -213 741 -348 163 -101 376 -264 470 -358 62 -62 82 -76
107 -76 35 0 62 22 62 52 0 42 -264 283 -465 425 -246 173 -599 352 -955 483
-63 23 -119 44 -124 47 -20 13 152 139 365 268 252 154 541 266 689 269 107 1
187 -38 265 -132 66 -79 187 -317 234 -461 91 -274 123 -479 123 -773 l1 -216
39 -49 c297 -358 460 -872 459 -1448 -1 -497 -146 -816 -453 -998 l-61 -36 89
5 c114 7 186 27 250 69 l52 34 24 -27 c35 -37 116 -162 166 -254 129 -237 239
-607 277 -930 16 -135 22 -421 10 -526 -48 -432 -148 -694 -371 -968 -41 -50
-100 -113 -131 -140 -32 -27 -64 -55 -72 -62 -23 -22 -152 -107 -221 -145 -55
-30 -210 -97 -225 -97 -3 0 15 26 38 58 46 60 94 147 122 222 10 25 21 54 25
65 56 141 76 443 41 613 -31 149 -132 331 -171 307 -13 -8 -7 -111 14 -245 48
-299 -15 -617 -167 -845 -130 -196 -362 -336 -622 -375 -100 -15 -319 -15
-409 -1 -237 40 -440 173 -550 362 -77 133 -110 282 -109 484 0 148 12 228 62
425 28 109 33 154 12 96 -6 -14 -13 -26 -16 -26 -4 0 -3 5 1 12 4 6 3 8 -3 5
-33 -21 -108 -154 -144 -257 -52 -149 -69 -240 -69 -375 0 -256 62 -413 250
-637 l31 -37 -500 -1 c-276 0 -501 2 -501 4 0 3 32 44 70 93 70 86 112 161
145 258 9 28 20 57 23 65 34 95 39 322 11 475 -12 66 -65 217 -99 285 -30 57
-28 56 -42 42 -9 -9 -8 -12 5 -12 23 0 25 -75 2 -84 -14 -5 -42 30 -32 41 3 2
-1 20 -9 38 -18 44 -17 69 1 30 l14 -30 -2 38 c-1 36 -30 78 -44 64 -3 -4 -1
-7 5 -7 7 0 12 -5 12 -11 0 -5 -6 -7 -12 -3 -10 6 -10 5 -1 -8 7 -8 10 -18 7
-21 -4 -3 3 -41 14 -84 41 -158 56 -335 40 -502 -37 -408 -270 -666 -650 -722
-119 -17 -391 -6 -493 21 -426 111 -696 481 -695 955 0 149 11 225 52 387 18
70 29 130 26 133 -11 11 -64 -23 -98 -62 -65 -73 -109 -198 -133 -376 -31
-229 7 -458 110 -654 68 -131 110 -190 196 -277 43 -43 75 -81 72 -84 -15 -15
-632 -5 -790 13 -22 3 -65 7 -95 10 -30 4 -98 15 -150 25 -52 11 -106 21 -120
23 -175 32 -352 87 -496 156 -191 91 -419 265 -512 390 -15 20 -29 38 -32 41
-41 37 -166 284 -210 415 -51 151 -76 273 -99 472 -8 70 -6 359 3 443 3 30 8
82 11 115 7 78 43 284 62 360 8 33 17 69 19 79 17 91 125 359 192 481 93 169
223 334 326 415 l39 30 54 -59 c33 -37 75 -70 109 -87 48 -23 63 -26 125 -22
38 3 73 8 76 12 4 3 -25 37 -63 74 -238 231 -331 587 -288 1107 31 370 108
684 227 920 l40 80 12 -55 c13 -65 28 -96 55 -110 41 -22 77 19 99 116 10 43
9 65 -6 140 -24 122 -24 406 1 559 51 322 177 669 323 895 104 159 160 215
260 256 70 28 167 32 278 9z m2183 -6244 c-2 -32 -7 -57 -11 -54 -11 6 -6 113
5 113 5 0 7 -27 6 -59z"/>
<path d="M4110 7670 c-63 -19 -103 -35 -260 -107 -181 -84 -401 -235 -541
-372 -81 -80 -89 -94 -65 -108 12 -7 11 -10 -2 -23 -14 -13 -15 -12 -9 3 6 16
-3 23 -16 11 -9 -9 4 -34 17 -34 7 0 22 11 34 25 12 14 28 25 34 25 7 0 1 -11
-14 -25 -16 -13 -24 -26 -20 -29 4 -2 28 14 52 38 56 52 231 192 285 227 143
93 184 118 213 133 19 10 30 21 26 28 -4 6 -3 8 4 4 14 -8 74 28 64 39 -4 5
-2 5 4 2 12 -7 270 111 261 119 -3 3 -1 19 3 35 5 16 6 29 2 28 -4 0 -36 -9
-72 -19z m-480 -314 c0 -2 -7 -7 -16 -10 -8 -3 -12 -2 -9 4 6 10 25 14 25 6z
m-296 -251 c-4 -8 -10 -12 -15 -9 -14 8 -10 24 6 24 9 0 12 -6 9 -15z"/>
<path d="M4295 6074 c-99 -22 -175 -66 -249 -144 -72 -77 -118 -172 -141 -296
-53 -277 124 -538 396 -584 428 -72 722 354 527 767 -93 198 -316 305 -533
257z m280 -198 c77 -59 99 -132 63 -204 -49 -100 -185 -122 -271 -44 -81 73
-71 203 19 259 55 34 136 29 189 -11z m-60 -431 c30 -30 31 -54 4 -89 -24 -31
-67 -35 -97 -8 -32 26 -37 63 -12 95 28 35 72 36 105 2z"/>
<path d="M7105 6084 c-259 -40 -427 -228 -442 -495 -4 -61 -1 -116 7 -150 57
-248 275 -413 522 -396 157 11 269 70 361 189 137 180 126 464 -25 674 -51 71
-174 152 -256 169 -42 9 -134 14 -167 9z m179 -188 c46 -19 94 -71 107 -117
16 -51 4 -103 -32 -144 -115 -130 -342 -4 -296 165 10 38 50 87 82 100 32 14
103 11 139 -4z m-57 -448 c31 -29 30 -71 -3 -97 -34 -26 -68 -27 -94 -1 -64
64 31 160 97 98z"/>
<path d="M5755 5599 c-87 -16 -116 -39 -129 -104 -8 -39 21 -88 63 -106 17 -8
31 -18 31 -23 0 -5 -12 -29 -27 -53 -31 -48 -62 -62 -98 -43 -53 28 -106 -20
-84 -77 25 -66 78 -91 164 -78 34 5 56 16 87 46 45 43 53 46 61 24 3 -7 30
-28 59 -44 91 -53 184 -39 223 33 23 43 13 83 -27 105 -25 14 -29 14 -50 -6
-21 -19 -26 -20 -54 -8 -31 13 -74 69 -74 97 0 8 11 20 24 26 74 33 80 143 12
187 -37 25 -118 35 -181 24z"/>
</g>
</svg>
