<?xml version="1.0" standalone="no"?>
<!DOCTYPE svg PUBLIC "-//W3C//DTD SVG 20010904//EN"
 "http://www.w3.org/TR/2001/REC-SVG-20010904/DTD/svg10.dtd">
<svg version="1.0" xmlns="http://www.w3.org/2000/svg"
 width="1024.000000pt" height="1024.000000pt" viewBox="0 0 1024.000000 1024.000000"
 preserveAspectRatio="xMidYMid meet">

<g transform="translate(0.000000,1024.000000) scale(0.100000,-0.100000)"
fill="#000000" stroke="none">
<path d="M4971 7658 c-13 -4 -27 -6 -31 -3 -5 3 -11 1 -15 -5 -4 -7 -12 -7
-25 0 -10 6 -21 6 -24 1 -3 -4 -18 -7 -33 -5 -15 1 -33 -2 -40 -8 -8 -6 -16
-9 -19 -6 -2 3 -26 1 -52 -4 -56 -11 -73 -14 -132 -23 -25 -4 -53 -12 -64 -17
-10 -6 -28 -12 -40 -13 -11 -2 -39 -9 -61 -15 -22 -6 -54 -15 -70 -19 -17 -4
-39 -13 -50 -19 -11 -5 -49 -19 -85 -30 -65 -20 -212 -80 -239 -97 -8 -5 -62
-33 -120 -63 -58 -30 -111 -61 -118 -68 -7 -7 -23 -16 -36 -20 -12 -4 -24 -10
-27 -13 -7 -9 -124 -85 -130 -85 -3 0 -10 -4 -16 -10 -6 -6 -23 -20 -38 -31
-16 -11 -45 -36 -66 -55 -21 -19 -60 -53 -86 -75 -70 -60 -184 -175 -184 -186
0 -6 -4 -8 -9 -5 -4 3 -13 -6 -19 -19 -7 -14 -16 -25 -22 -25 -5 0 -10 -4 -10
-9 0 -6 -11 -22 -25 -37 -14 -15 -25 -31 -25 -37 0 -5 -11 -18 -25 -29 -14
-11 -25 -26 -25 -34 0 -8 -5 -14 -10 -14 -6 0 -16 -12 -23 -27 -6 -16 -20 -34
-29 -41 -10 -7 -18 -20 -18 -28 0 -8 -4 -14 -9 -14 -5 0 -13 -10 -17 -22 -6
-20 -13 -31 -41 -63 -7 -7 -13 -18 -13 -24 0 -6 -9 -20 -20 -31 -11 -11 -20
-29 -20 -40 0 -11 -4 -20 -9 -20 -5 0 -15 -15 -22 -32 -7 -18 -19 -39 -25 -45
-7 -7 -22 -39 -34 -70 -11 -32 -30 -78 -42 -103 -12 -25 -25 -54 -28 -65 -4
-11 -12 -31 -18 -45 -6 -14 -16 -43 -23 -65 -6 -22 -15 -44 -19 -50 -5 -5 -11
-32 -15 -60 -4 -27 -12 -53 -17 -56 -5 -3 -11 -21 -14 -40 -9 -57 -12 -74 -14
-79 -1 -3 -3 -9 -4 -15 -1 -5 -5 -25 -10 -43 -4 -18 -9 -54 -11 -80 -2 -26 -4
-47 -5 -47 -1 0 -3 -22 -5 -50 -2 -27 -6 -72 -9 -100 -8 -67 -9 -316 -1 -385
3 -30 8 -74 10 -97 3 -24 7 -53 9 -65 3 -13 8 -50 11 -83 3 -33 7 -69 9 -80
20 -100 38 -180 42 -187 3 -4 7 -16 9 -25 3 -10 11 -41 18 -70 6 -29 18 -58
25 -65 6 -6 12 -24 12 -38 0 -14 4 -30 8 -35 4 -6 17 -35 29 -65 11 -30 26
-69 33 -87 7 -18 12 -35 11 -37 0 -3 9 -23 21 -43 12 -21 39 -72 61 -113 22
-41 42 -77 46 -80 3 -3 15 -21 25 -40 11 -19 22 -37 25 -40 4 -3 15 -22 26
-42 11 -21 22 -38 25 -38 3 0 14 -16 24 -35 11 -19 23 -35 28 -35 5 0 7 -4 4
-9 -3 -5 1 -11 9 -15 8 -3 15 -11 15 -19 0 -7 11 -24 25 -37 14 -13 23 -25 21
-28 -2 -2 20 -29 50 -59 30 -31 54 -58 54 -61 0 -3 42 -44 93 -93 50 -48 101
-97 112 -107 11 -11 56 -47 100 -81 44 -34 94 -73 110 -86 17 -14 49 -35 73
-46 23 -12 45 -26 50 -33 4 -7 32 -24 62 -39 30 -15 70 -36 89 -47 19 -10 47
-24 62 -29 16 -5 29 -15 29 -20 0 -6 7 -11 15 -11 8 0 39 -13 70 -30 30 -16
55 -27 55 -25 0 3 15 -2 33 -12 17 -9 40 -16 50 -14 9 1 17 -2 17 -7 0 -5 20
-15 45 -22 25 -7 45 -17 45 -22 0 -6 8 -8 18 -6 11 3 30 -1 43 -8 13 -7 36
-13 51 -14 15 0 30 -5 33 -11 4 -5 14 -8 23 -6 10 2 30 -3 46 -11 15 -7 47
-15 70 -17 22 -2 63 -11 90 -19 27 -8 53 -13 58 -10 5 3 14 1 21 -4 7 -5 21
-8 32 -6 11 2 34 -1 50 -6 54 -17 383 -32 391 -18 4 6 35 5 54 -2 3 -2 10 -1
15 0 6 2 43 4 82 6 40 2 119 12 175 23 57 11 127 23 155 26 29 4 55 11 58 16
3 4 12 6 19 3 8 -3 28 2 45 11 17 8 31 14 31 11 0 -2 34 7 75 19 41 13 75 21
75 18 0 -3 6 -1 13 4 6 6 26 14 42 18 17 5 32 9 35 10 23 8 48 18 62 26 10 5
27 9 38 9 11 0 20 4 20 9 0 5 10 13 23 16 46 13 107 40 107 48 0 4 9 7 19 7
11 0 26 6 33 13 7 7 31 21 53 31 22 11 42 22 45 25 3 3 21 14 40 24 80 41 95
51 103 64 4 7 15 13 22 13 8 0 15 5 15 10 0 6 6 10 13 10 7 0 28 13 47 30 19
16 40 29 45 30 6 0 18 8 26 18 18 19 57 52 63 52 4 0 73 60 129 113 22 20 44
37 49 37 4 0 8 7 8 15 0 8 4 15 9 15 12 0 129 117 166 165 16 22 40 50 52 61
13 12 23 26 23 31 0 6 8 19 18 30 9 11 28 35 42 53 14 18 31 39 38 46 6 7 12
18 12 25 0 6 8 19 19 28 10 9 22 27 26 41 4 14 11 27 15 30 11 7 57 87 81 140
21 47 38 82 56 115 6 11 23 52 38 90 15 39 33 84 40 100 7 17 19 50 25 75 7
25 15 50 20 55 4 6 12 30 18 55 5 25 22 97 36 160 33 143 43 210 52 330 10
126 9 405 0 505 -5 44 -9 89 -10 101 -1 11 -5 24 -7 30 -3 5 -7 27 -8 49 -1
22 -7 58 -12 80 -6 22 -12 47 -13 55 -2 8 -7 23 -11 33 -4 10 -5 20 -2 24 4 3
0 17 -7 32 -7 14 -17 44 -21 66 -4 22 -15 59 -26 82 -11 23 -18 46 -17 50 1 4
-6 23 -16 42 -10 18 -20 45 -22 59 -12 63 -172 375 -264 512 -21 30 -41 62
-46 72 -5 9 -25 34 -44 55 -20 21 -47 54 -60 73 -37 53 -255 268 -340 335 -41
33 -84 67 -94 77 -11 10 -23 18 -26 18 -4 0 -20 11 -36 25 -16 14 -32 25 -36
25 -4 0 -20 12 -36 28 -16 15 -54 40 -85 55 -31 16 -57 33 -57 38 0 5 -9 9
-20 9 -11 0 -20 3 -20 8 0 4 -15 14 -32 21 -18 8 -49 24 -68 35 -19 11 -40 21
-48 22 -8 2 -24 12 -36 23 -12 12 -32 21 -43 21 -11 0 -26 7 -33 15 -7 8 -19
15 -27 15 -7 0 -58 16 -111 36 -112 41 -121 44 -125 42 -1 -1 -12 4 -25 11
-19 10 -96 34 -147 45 -5 1 -19 5 -30 9 -11 3 -31 8 -45 11 -14 2 -61 11 -105
19 -44 9 -123 21 -175 27 -119 14 -439 19 -469 8z m344 -237 c5 -3 25 -4 45
-2 20 1 48 -3 63 -8 15 -6 49 -12 75 -12 26 -1 52 -5 57 -9 6 -4 17 -8 25 -8
28 -1 85 -12 140 -26 152 -39 186 -48 200 -53 8 -3 22 -7 30 -9 15 -3 74 -26
125 -49 41 -19 109 -48 115 -49 3 -1 16 -8 28 -15 13 -7 26 -10 29 -7 5 4 11
0 46 -29 7 -6 33 -21 60 -33 26 -12 55 -30 65 -40 10 -9 35 -26 57 -37 22 -11
42 -22 45 -25 3 -3 24 -18 48 -33 23 -15 42 -32 42 -37 0 -6 6 -10 14 -10 8 0
16 -3 18 -7 2 -5 23 -24 48 -43 25 -19 51 -39 58 -45 25 -19 115 -100 131
-117 8 -10 21 -18 28 -18 7 0 13 -5 13 -11 0 -7 21 -33 48 -59 72 -72 191
-220 177 -220 -4 0 5 -11 19 -23 14 -13 23 -27 19 -30 -3 -4 -2 -7 4 -7 6 0
14 -8 17 -17 6 -18 13 -29 57 -98 14 -22 30 -51 34 -65 4 -14 18 -38 30 -55
19 -27 37 -59 39 -75 1 -3 11 -26 23 -50 53 -109 73 -159 73 -183 0 -14 5 -29
10 -32 6 -3 10 -14 10 -24 0 -10 7 -32 15 -49 15 -29 21 -50 30 -97 2 -11 11
-51 20 -90 68 -304 76 -660 21 -945 -18 -93 -75 -312 -86 -325 -4 -5 -15 -35
-24 -65 -9 -30 -21 -63 -27 -72 -5 -10 -9 -23 -9 -29 0 -21 -140 -293 -181
-351 -11 -14 -19 -29 -19 -33 0 -6 -87 -124 -100 -135 -3 -3 -14 -18 -24 -35
-11 -16 -25 -34 -33 -38 -7 -4 -13 -13 -13 -18 0 -6 -51 -60 -112 -120 -62
-60 -137 -132 -165 -160 -29 -29 -53 -49 -53 -45 0 3 -8 -2 -18 -11 -95 -90
-515 -343 -569 -343 -7 0 -13 -6 -13 -12 0 -10 -2 -10 -9 0 -7 11 -11 11 -24
-2 -8 -9 -20 -16 -25 -16 -5 0 -22 -7 -38 -14 -15 -8 -32 -13 -36 -10 -5 3
-17 -1 -27 -10 -10 -9 -22 -16 -27 -15 -11 3 -56 -7 -114 -26 -25 -8 -59 -17
-77 -20 -18 -3 -44 -10 -59 -15 -15 -6 -45 -13 -68 -16 -22 -3 -54 -8 -71 -11
-16 -3 -43 -6 -60 -7 -16 -2 -41 -6 -54 -10 -12 -5 -50 -8 -82 -8 -33 -1 -62
-4 -64 -8 -2 -4 -17 -6 -32 -3 -16 2 -98 5 -183 8 -85 3 -166 7 -180 10 -14 3
-47 8 -75 10 -27 3 -70 9 -95 15 -25 5 -55 11 -68 14 -12 3 -26 7 -30 10 -5 3
-27 6 -50 7 -23 2 -42 7 -42 11 0 4 -9 8 -20 8 -11 0 -42 8 -69 19 -28 10 -52
16 -55 13 -3 -2 -12 1 -21 8 -8 7 -15 10 -15 6 0 -4 -13 0 -30 9 -16 9 -30 13
-30 10 0 -4 -10 1 -21 9 -12 8 -28 12 -35 9 -8 -3 -14 -1 -14 5 0 5 -12 13
-27 17 -39 9 -207 91 -278 134 -96 58 -99 60 -115 67 -8 4 -21 16 -28 26 -7
10 -18 16 -23 13 -5 -4 -9 -2 -9 2 0 5 -15 17 -32 28 -18 10 -42 27 -53 38
-11 10 -35 27 -52 38 -18 12 -33 25 -33 30 0 5 -6 9 -13 9 -7 0 -27 15 -43 33
-16 17 -48 48 -69 68 -46 41 -192 200 -214 232 -8 12 -26 36 -40 53 -52 63
-60 73 -93 126 -125 195 -262 518 -313 732 -39 163 -50 231 -61 371 -17 219
-9 447 21 625 13 79 16 93 30 150 3 11 7 30 10 43 13 61 39 155 50 182 7 17
19 50 26 75 7 25 23 63 34 85 12 22 33 71 46 109 13 37 29 71 36 73 7 3 13 11
13 18 0 7 7 18 15 25 8 7 12 16 9 21 -3 5 -1 9 4 9 8 0 40 50 82 130 8 16 28
43 44 60 15 18 38 46 50 64 27 40 39 55 103 124 28 32 63 71 78 87 59 67 105
112 160 160 31 28 63 55 69 60 6 6 27 22 48 37 20 15 43 34 51 42 8 8 17 12
21 9 3 -4 6 -1 6 5 0 7 7 12 15 12 8 0 15 4 15 8 0 5 15 16 33 25 35 18 69 39
77 47 3 3 21 13 40 23 69 37 94 52 112 70 10 10 23 15 28 12 4 -3 23 3 42 14
18 10 57 26 86 36 28 9 52 20 52 25 0 4 15 11 34 14 19 4 47 13 64 21 16 8 41
16 56 17 14 1 26 5 26 9 0 4 20 10 45 13 24 4 47 11 50 17 4 5 11 7 16 3 5 -3
15 -1 22 4 7 6 32 12 57 15 25 3 66 10 93 16 53 12 90 19 157 26 25 3 72 9
105 14 65 9 344 11 360 2z"/>
<path d="M3685 5663 c-19 -4 -35 -10 -95 -37 -14 -6 -28 -15 -32 -20 -3 -5
-15 -11 -25 -12 -9 -2 -19 -8 -21 -14 -2 -6 -12 -19 -22 -28 -29 -28 -78 -118
-86 -159 -17 -87 -3 -183 37 -243 5 -8 12 -22 15 -30 5 -14 99 -94 113 -96 6
0 40 -14 101 -42 42 -18 54 -22 100 -29 25 -4 49 -21 87 -60 46 -47 53 -59 53
-94 0 -33 -7 -48 -34 -75 -19 -19 -43 -34 -54 -34 -12 0 -23 -3 -26 -8 -4 -7
-63 -7 -118 1 -16 2 -46 17 -67 32 -81 56 -163 52 -201 -9 -23 -39 -25 -74 -6
-119 14 -34 90 -107 111 -107 7 0 25 -7 42 -15 62 -31 258 -38 344 -12 53 16
159 82 159 101 0 4 11 16 24 27 26 21 62 110 72 181 8 59 -9 138 -44 207 -27
55 -134 161 -162 161 -8 0 -35 11 -59 25 -23 14 -51 25 -61 25 -11 0 -22 5
-25 10 -3 6 -15 10 -25 10 -28 0 -102 44 -123 72 -29 38 -9 100 43 134 35 23
46 26 97 21 32 -4 59 -6 60 -7 1 0 8 -6 15 -12 25 -24 88 -51 117 -51 69 0
121 48 121 113 0 77 -85 159 -194 187 -27 7 -205 12 -231 6z"/>
<path d="M6554 5658 c-3 -4 -19 -8 -35 -8 -37 0 -114 -34 -144 -63 -24 -24
-72 -90 -67 -95 1 -1 -4 -18 -12 -37 -22 -52 -27 -127 -27 -405 -1 -235 6
-373 17 -392 3 -5 7 -17 9 -28 2 -11 11 -27 19 -36 9 -8 16 -20 16 -25 0 -16
56 -77 66 -71 2 1 14 -6 25 -17 30 -27 122 -42 272 -43 134 0 174 7 211 40 30
28 54 106 35 118 -5 3 -9 14 -9 24 0 46 -86 84 -160 70 -22 -4 -43 -3 -46 1
-3 5 -13 5 -22 1 -9 -5 -46 -7 -82 -5 -63 5 -83 16 -86 48 0 6 -4 18 -9 28 -7
16 -10 85 -6 144 1 22 3 22 153 22 171 0 203 9 231 65 18 37 27 74 18 78 -3 2
-13 16 -21 32 -32 62 -55 70 -220 72 -82 1 -153 5 -158 7 -8 6 -6 136 3 172 8
32 50 55 112 62 32 3 63 5 68 4 23 -3 141 -2 155 1 80 20 108 109 58 181 -32
45 -78 58 -226 61 -73 2 -135 -1 -138 -6z"/>
<path d="M4699 5628 c-51 -13 -122 -83 -135 -132 -3 -14 -12 -30 -20 -37 -8
-6 -14 -16 -14 -21 0 -6 -7 -24 -15 -41 -16 -36 -42 -107 -55 -152 -5 -16 -18
-57 -29 -89 -12 -33 -21 -69 -21 -81 0 -11 -4 -25 -8 -31 -5 -5 -21 -49 -36
-99 -15 -49 -38 -126 -51 -170 -13 -44 -26 -91 -28 -105 -2 -14 -7 -32 -11
-41 -10 -24 1 -98 19 -126 16 -24 53 -45 90 -49 30 -4 85 16 85 31 0 7 7 15
14 18 8 3 20 25 26 49 7 24 16 48 22 55 5 6 10 25 10 42 1 17 5 31 10 31 4 0
8 11 8 25 0 14 6 25 13 26 136 5 365 3 374 -3 6 -5 22 -53 35 -106 20 -84 28
-102 61 -134 28 -29 45 -38 71 -38 52 0 82 15 109 56 30 43 29 58 -15 219 -71
265 -104 373 -188 610 -62 176 -127 269 -206 293 -47 14 -64 14 -115 0z m93
-383 c24 -65 64 -193 75 -241 5 -21 1 -21 -106 -21 -80 -1 -111 3 -111 11 0
40 75 301 93 324 14 17 19 9 49 -73z"/>
<path d="M5292 5589 c-28 -11 -45 -27 -61 -57 -14 -27 -21 -91 -9 -98 4 -3 8
-15 8 -28 0 -12 7 -31 15 -42 8 -10 15 -28 15 -39 0 -17 17 -73 40 -130 14
-35 22 -59 26 -85 6 -31 32 -115 49 -155 7 -16 30 -84 51 -150 34 -107 53
-155 87 -220 6 -11 16 -30 23 -43 19 -37 87 -90 126 -97 69 -13 152 45 198
139 11 23 33 82 50 131 17 50 34 97 37 105 3 8 7 22 9 31 2 8 10 29 19 45 8
16 15 35 15 42 0 8 6 28 14 45 12 28 74 214 81 242 1 6 5 17 8 25 29 76 60
190 60 221 0 80 -45 129 -117 129 -44 0 -98 -50 -116 -107 -7 -21 -16 -42 -21
-47 -5 -6 -9 -18 -9 -28 0 -10 -4 -26 -9 -36 -14 -29 -33 -86 -36 -107 -1 -11
-9 -37 -18 -59 -10 -21 -17 -44 -17 -52 0 -7 -5 -16 -10 -19 -6 -4 -7 -11 -4
-17 4 -6 2 -13 -3 -17 -6 -3 -17 -28 -26 -56 -51 -162 -74 -218 -89 -213 -12
4 -48 114 -40 123 3 3 0 5 -6 5 -7 0 -12 6 -12 13 0 15 -34 128 -107 351 -55
171 -87 237 -122 256 -24 12 -68 12 -99 -1z"/>
</g>
</svg>
